<?xml version="1.0" encoding="UTF-8" standalone="no"?>
<svg width="100px" height="100px" viewBox="0 0 100 100" version="1.1" xmlns="http://www.w3.org/2000/svg" xmlns:xlink="http://www.w3.org/1999/xlink" xmlns:sketch="http://www.bohemiancoding.com/sketch/ns">
    <!-- Generator: Sketch 3.3.3 (12072) - http://www.bohemiancoding.com/sketch -->
    <title>columns</title>
    <desc>Created with Sketch.</desc>
    <defs></defs>
    <g id="Small" stroke="none" stroke-width="1" fill="none" fill-rule="evenodd" sketch:type="MSPage">
        <g id="columns" sketch:type="MSArtboardGroup" fill="#000000">
            <path d="M72.2424242,15.5439977 C68.5990713,14.6934815 64.7487548,14.8114981 61.0707071,16.1019376 L61.0707071,16.1019376 L61.0707071,75.1766738 C62.6225457,74.0117864 64.4180226,72.6648262 66.523569,71.0764818 C68.3632343,69.6899674 70.3016613,68.2036959 72.2424242,66.6128228 L72.2424242,15.5439977 Z M77.8282828,17.6952182 C84.68833,21.4692419 89.7979798,28.9249652 89.7979798,38.2563227 C89.7979798,47.5696711 84.3857405,55.3009853 77.8282842,61.6646392 L77.8282828,17.6952182 Z M55.4848485,19.1259299 C53.4647435,20.6589977 51.5761209,22.6454354 49.8989899,25.128259 C48.0028384,22.3211975 45.83635,20.148636 43.5151515,18.5488655 L43.5151515,18.5488655 L43.5151515,78.9038971 C46.3826173,81.0739742 48.0785057,82.4075502 49.8989899,84.2045455 C51.5549816,82.5699203 53.0757102,81.2756029 55.4848485,79.4076336 L55.4848485,19.1259299 L55.4848485,19.1259299 Z M37.9292929,15.8435941 C34.2237958,14.72187 30.3730092,14.7625281 26.7575758,15.7624228 L26.7575758,15.7624228 L26.7575758,65.8600354 C28.9730456,67.7191744 31.1951944,69.453154 33.2744108,71.0764818 C35.0260376,72.4436575 36.5650538,73.6296944 37.9292929,74.6725352 L37.9292929,15.8435941 L37.9292929,15.8435941 Z M21.1717172,18.1861706 C14.7171438,22.1090777 10,29.3817226 10,38.4138594 C10,47.3171688 15.0002328,54.6542897 21.1717172,60.7965119 L21.1717172,18.1861706 L21.1717172,18.1861706 Z" id="Imported-Layers" sketch:type="MSShapeGroup"></path>
        </g>
    </g>
</svg>