<?xml version="1.0" encoding="UTF-8" standalone="no"?>
<svg width="100px" height="100px" viewBox="0 0 100 100" version="1.1" xmlns="http://www.w3.org/2000/svg" xmlns:xlink="http://www.w3.org/1999/xlink" xmlns:sketch="http://www.bohemiancoding.com/sketch/ns">
    <!-- Generator: Sketch 3.3.3 (12072) - http://www.bohemiancoding.com/sketch -->
    <title>twitter</title>
    <desc>Created with Sketch.</desc>
    <defs></defs>
    <g id="Small" stroke="none" stroke-width="1" fill="none" fill-rule="evenodd" sketch:type="MSPage">
        <g id="twitter" sketch:type="MSArtboardGroup" fill="#000000">
            <path d="M85,28.7475493 C82.4244486,29.8920235 79.6566078,30.6655249 76.7515271,31.0134082 C79.7167782,29.2324308 81.9937818,26.4124216 83.0660961,23.0523724 C80.291342,24.701226 77.2177841,25.8988064 73.9465599,26.5442888 C71.3267128,23.7476258 67.5943524,22 63.4638429,22 C55.532353,22 49.102052,28.4427666 49.102052,36.3894355 C49.102052,37.5172339 49.2293061,38.615529 49.4740846,39.6686711 C37.5383152,39.0685982 26.956253,33.3398131 19.8730385,24.6340097 C18.6368558,26.7592786 17.9286367,29.231148 17.9286367,31.8682363 C17.9286367,36.8604632 20.4642452,41.2649317 24.3177146,43.8453222 C21.9633856,43.7706659 19.749113,43.1233876 17.8126486,42.0456166 C17.8116244,42.1056495 17.8116244,42.165939 17.8116244,42.2264851 C17.8116244,49.1985165 22.7619884,55.0145289 29.3318336,56.3362799 C28.1266323,56.6651784 26.8579319,56.8409158 25.5480083,56.8409158 C24.6226636,56.8409158 23.7229233,56.7508664 22.846227,56.5828255 C24.6736164,62.2998092 29.9773218,66.460041 36.2616775,66.5762587 C31.3466476,70.4355562 25.1542119,72.7360495 18.4258751,72.7360495 C17.2667618,72.7360495 16.1235232,72.6680634 15,72.53517 C21.355536,76.6179235 28.9044954,79 37.0147043,79 C63.430301,79 77.8753063,57.0733511 77.8753063,38.0580436 C77.8753063,37.4341114 77.8614799,36.8135144 77.8338271,36.1965091 C80.6395625,34.1677034 83.0745455,31.6332355 85,28.7475493" id="Twitter-:-Logo" sketch:type="MSShapeGroup"></path>
        </g>
    </g>
</svg>